# xmcd CD database file
#
# Track frame offsets:
#	187
#	24665
#	46950
#	63750
#	90592
#	106807
#	130997
#	152215
#	174047
#
# Disc length: 2593 seconds
#
# Revision: 0
# Processed by: cddbd v1.5PL3 Copyright (c) Steve Scherf et al.
# Submitted via: CDex 1.50
#
DISCID=650a1f09
DTITLE=The Dolphine Brothers - Catch The Fall
DYEAR=1988
DGENRE=New Age
TTITLE0=Catch The Fall
TTITLE1=Shining
TTITLE2=Second Sight
TTITLE3=Love That You Need
TTITLE4=Real Life, Real Answers
TTITLE5=Host To The Holy
TTITLE6=My Winter
TTITLE7=Pushing The River
TTITLE8=Face To Face
EXTD=YEAR: 1988
EXTT0=
EXTT1=
EXTT2=
EXTT3=
EXTT4=
EXTT5=
EXTT6=
EXTT7=
EXTT8=
PLAYORDER=
